<svg id="etUFsSDQMeW1" xmlns="http://www.w3.org/2000/svg" xmlns:xlink="http://www.w3.org/1999/xlink" viewBox="0 0 1643 1431" shape-rendering="geometricPrecision" text-rendering="geometricPrecision" project-id="34a974986e054ddeb3995a0239fc81e5" export-id="3e30f3ca2d3d4dfe9e7f20c9f12c237e" cached="false"><path d="M323.088233,158.332837L201.784732,224.183308v765.944964l121.303501,69.316287l939.23568,6.931628v-908.043351l-939.23568.000001Z" transform="translate(0 0.000001)" fill="none" stroke="#fff" stroke-width="3.286" stroke-miterlimit="6"/><path d="M201.784732,341.273244l17.167403-21.27989v-80.390694l104.136098-57.928589l202.057868-.000001l57.928588-23.341233-259.986459-.000001-121.303501,65.850471.000003,117.089937Z" transform="translate(.000003 0.000002)" fill="#faf1f1" stroke="#fff" stroke-width="3.286"/><path d="M375.004659,158.332838l26.008754,12.701289h96.941719l33.10205-12.701288-156.052523-.000001Z" transform="translate(.000003 0)" fill="none" stroke="#646464" stroke-width="3.286"/><path d="M201.784735,858.883044l17.167403,28.652987-.000001,87.749772l104.136097,59.096787h207.968948l52.017507,25.061969h-259.986459L201.784729,990.128272l.000006-131.245228Z" transform="translate(.000003 0.000001)" fill="#fff" stroke="#fcfdff" stroke-width="3.286"/><path d="M375.004662,1059.44456l26.008754-12.055022h96.941719l27.190968,12.055022h-150.141441Z" transform="translate(0 1.257682)" fill="none" stroke="#646464" stroke-width="3.286"/></svg>
